<?xml version="1.0" encoding="utf-8"?>
<!-- Generator: Adobe Illustrator 24.0.3, SVG Export Plug-In . SVG Version: 6.00 Build 0)  -->
<svg version="1.1" id="Capa_1" xmlns="http://www.w3.org/2000/svg" xmlns:xlink="http://www.w3.org/1999/xlink" x="0px" y="0px"
	 viewBox="0 0 288.7 288.7" style="enable-background:new 0 0 288.7 288.7;" xml:space="preserve">
<style type="text/css">
	.st0{fill:#E42313;}
</style>
<title>linkedin</title>
<path class="st0" d="M74.6,288.4H4.5V91.7h70.1V288.4z M17.4,275.5h44.4v-171H17.4L17.4,275.5z M39.6,79.4
	c-21.8,0-39.5-17.8-39.5-39.6S17.9,0.3,39.7,0.3c21.8,0,39.5,17.7,39.5,39.5C79.2,61.7,61.5,79.4,39.6,79.4z M39.6,13.2
	c-14.7,0-26.7,12-26.7,26.7s12,26.7,26.7,26.7s26.7-12,26.7-26.7C66.3,25.2,54.3,13.2,39.6,13.2z M288.7,288.4h-70v-95.8
	c0-28.7-3.5-42.3-23.3-42.3c-20,0-27.9,11.4-27.9,40.8v97.4H97.6V91.7h67.6v13.9c10.8-10.1,27.1-18.5,48.4-18.5
	c66.1,0,75,47.5,75,94L288.7,288.4z M231.6,275.5h44.3v-94.4c0-50.1-10.4-81.1-62.1-81.1c-25.5,0-42,14.1-48.4,26.3l-1.8,3.4h-11.1
	v-25.1h-41.9v171h44.2V191c0-14.7,0-53.6,40.7-53.6c36.2,0,36.2,35.9,36.2,55.2L231.6,275.5L231.6,275.5z"/>
</svg>
